<svg width="663" height="131" viewBox="0 0 663 131" fill="none" xmlns="http://www.w3.org/2000/svg">
<g clip-path="url(#clip0_1_2)">
<path d="M44.7 15.6V20.9C42.1333 20.9 39.7833 21.1667 37.65 21.7C35.5167 22.2 33.85 23.0667 32.65 24.3C31.45 25.5333 30.95 27.2167 31.15 29.35L33.4 51.6C33.6667 54.1 33.5667 56.2 33.1 57.9C32.6333 59.6 31.8 60.95 30.6 61.95C29.4333 62.9167 27.8667 63.6 25.9 64C27.8667 64.3667 29.45 65.0167 30.65 65.95C31.85 66.85 32.6667 68.15 33.1 69.85C33.5667 71.5167 33.6667 73.7 33.4 76.4L31.15 98.65C30.95 100.817 31.4333 102.517 32.6 103.75C33.8 104.983 35.4667 105.85 37.6 106.35C39.7667 106.85 42.1333 107.1 44.7 107.1V112.4C42.4333 112.4 40.1 112.183 37.7 111.75C35.3333 111.317 33.15 110.567 31.15 109.5C29.1833 108.433 27.65 106.933 26.55 105C25.4833 103.1 25.1167 100.65 25.45 97.65L27.65 77.25C27.8833 75.05 27.7167 73.15 27.15 71.55C26.6167 69.9167 25.2167 68.6667 22.95 67.8C20.6833 66.9 17.0667 66.45 12.1 66.45V61.55C17.0667 61.55 20.6833 61.1167 22.95 60.25C25.25 59.3833 26.6667 58.15 27.2 56.55C27.7333 54.95 27.8833 53.05 27.65 50.85L25.45 30.3C25.15 27.3333 25.5333 24.9 26.6 23C27.7 21.0667 29.2333 19.5667 31.2 18.5C33.1667 17.4333 35.3333 16.6833 37.7 16.25C40.1 15.8167 42.4333 15.6 44.7 15.6ZM92.5109 100.7C85.9443 100.7 80.4109 99.3167 75.9109 96.55C71.4109 93.75 67.9943 89.65 65.6609 84.25C63.3609 78.8167 62.2109 72.1333 62.2109 64.2C62.2109 58.3 63.0276 53.1 64.6609 48.6C66.3276 44.0667 68.6276 40.2833 71.5609 37.25C74.4943 34.1833 77.9109 31.8667 81.8109 30.3C85.7109 28.7333 89.9109 27.95 94.4109 27.95C99.4776 27.95 103.744 28.7333 107.211 30.3C110.678 31.8667 113.761 33.9333 116.461 36.5L107.861 45.4C105.761 43.5333 103.744 42.15 101.811 41.25C99.8776 40.35 97.6776 39.9 95.2109 39.9C92.8776 39.9 90.7276 40.3667 88.7609 41.3C86.8276 42.2 85.1276 43.6333 83.6609 45.6C82.2276 47.5333 81.1109 50.05 80.3109 53.15C79.5109 56.2167 79.1109 59.9333 79.1109 64.3C79.1109 70.3333 79.5943 75.1333 80.5609 78.7C81.5609 82.2667 83.0609 84.8333 85.0609 86.4C87.0609 87.9333 89.5943 88.7 92.6609 88.7C94.2943 88.7 95.8276 88.5167 97.2609 88.15C98.6943 87.75 100.028 87.2333 101.261 86.6V70.75H92.5609L90.9609 59.25H116.761V93.7C113.294 95.8333 109.561 97.5333 105.561 98.8C101.594 100.067 97.2443 100.7 92.5109 100.7ZM149.922 44.15C155.389 44.15 160.039 45.3167 163.872 47.65C167.705 49.9833 170.639 53.2667 172.672 57.5C174.705 61.7 175.722 66.6333 175.722 72.3C175.722 78.2 174.689 83.2833 172.622 87.55C170.589 91.7833 167.655 95.0333 163.822 97.3C159.989 99.5667 155.355 100.7 149.922 100.7C144.522 100.7 139.889 99.5833 136.022 97.35C132.189 95.1167 129.239 91.8833 127.172 87.65C125.139 83.4167 124.122 78.3333 124.122 72.4C124.122 66.7667 125.139 61.8333 127.172 57.6C129.239 53.3667 132.189 50.0667 136.022 47.7C139.889 45.3333 144.522 44.15 149.922 44.15ZM149.922 55.8C146.689 55.8 144.289 57.1333 142.722 59.8C141.189 62.4333 140.422 66.6333 140.422 72.4C140.422 78.2667 141.189 82.5167 142.722 85.15C144.289 87.7833 146.689 89.1 149.922 89.1C153.155 89.1 155.539 87.7833 157.072 85.15C158.639 82.5167 159.422 78.2333 159.422 72.3C159.422 66.5667 158.639 62.3833 157.072 59.75C155.539 57.1167 153.155 55.8 149.922 55.8ZM232.583 80.3C232.583 84.1333 231.633 87.5333 229.733 90.5C227.866 93.4667 225.133 95.8 221.533 97.5C217.933 99.1667 213.533 100 208.333 100C203.766 100 199.483 99.2833 195.483 97.85C191.516 96.4167 188.083 94.3167 185.183 91.55L189.383 86.75C191.716 88.9833 194.433 90.7833 197.533 92.15C200.633 93.4833 204.349 94.15 208.683 94.15C211.616 94.15 214.399 93.65 217.033 92.65C219.666 91.65 221.816 90.1167 223.483 88.05C225.149 85.9833 225.983 83.35 225.983 80.15C225.983 77.75 225.533 75.7167 224.633 74.05C223.733 72.35 222.133 70.85 219.833 69.55C217.533 68.2167 214.299 66.95 210.133 65.75C205.866 64.5167 202.066 63.1167 198.733 61.55C195.399 59.95 192.783 57.95 190.883 55.55C188.983 53.1167 188.033 50.05 188.033 46.35C188.033 43.15 188.899 40.2667 190.633 37.7C192.399 35.1333 194.866 33.1 198.033 31.6C201.199 30.1 204.916 29.35 209.183 29.35C213.749 29.35 217.699 30 221.033 31.3C224.399 32.6 227.499 34.4667 230.333 36.9L226.033 41.6C223.533 39.3333 220.833 37.7 217.933 36.7C215.066 35.7 212.149 35.2 209.183 35.2C206.549 35.2 204.116 35.6167 201.883 36.45C199.649 37.25 197.849 38.4667 196.483 40.1C195.116 41.7333 194.433 43.8167 194.433 46.35C194.433 48.4833 194.999 50.3333 196.133 51.9C197.266 53.4333 199.166 54.85 201.833 56.15C204.533 57.4167 208.166 58.7167 212.733 60.05C216.066 60.9833 219.249 62.1833 222.283 63.65C225.316 65.0833 227.783 67.1167 229.683 69.75C231.616 72.35 232.583 75.8667 232.583 80.3ZM242.294 75.25C242.394 79.65 243.177 83.2667 244.644 86.1C246.144 88.9 248.11 90.9667 250.544 92.3C252.977 93.6333 255.627 94.3 258.494 94.3C261.26 94.3 263.71 93.9 265.844 93.1C268.01 92.3 270.277 91.0833 272.644 89.45L275.894 94.1C273.46 95.9667 270.71 97.4167 267.644 98.45C264.61 99.4833 261.644 100 258.744 100C253.91 100 249.76 98.8667 246.294 96.6C242.86 94.3333 240.227 91.1667 238.394 87.1C236.56 83 235.644 78.2333 235.644 72.8C235.644 67.4667 236.577 62.75 238.444 58.65C240.31 54.55 242.894 51.35 246.194 49.05C249.527 46.7167 253.394 45.55 257.794 45.55C262.06 45.55 265.71 46.5833 268.744 48.65C271.777 50.7167 274.094 53.65 275.694 57.45C277.327 61.2167 278.144 65.7167 278.144 70.95C278.144 71.85 278.127 72.6667 278.094 73.4C278.06 74.1 278.027 74.7167 277.994 75.25H242.294ZM257.944 51.35C253.71 51.35 250.144 52.85 247.244 55.85C244.377 58.85 242.76 63.45 242.394 69.65H272.244C272.11 63.4833 270.727 58.9 268.094 55.9C265.46 52.8667 262.077 51.35 257.944 51.35ZM285.255 99V93.8H293.805V51.75H285.255V46.5H298.555L299.705 59.1C301.771 54.8333 304.238 51.5 307.105 49.1C310.005 46.6667 313.905 45.45 318.805 45.45C320.171 45.45 321.388 45.55 322.455 45.75C323.555 45.95 324.705 46.2 325.905 46.5L324.155 52.35C322.988 52.0167 321.955 51.7833 321.055 51.65C320.188 51.4833 319.188 51.4 318.055 51.4C313.821 51.4 310.221 52.85 307.255 55.75C304.288 58.6167 301.871 63.1667 300.005 69.4V93.8H310.805V99H285.255ZM319.205 63V52.75L319.605 46.5H325.905L325.205 63H319.205ZM373.766 46.5L354.216 99H347.066L327.766 46.5H334.216L350.916 92.7L367.266 46.5H373.766ZM383.177 75.25C383.277 79.65 384.06 83.2667 385.527 86.1C387.027 88.9 388.993 90.9667 391.427 92.3C393.86 93.6333 396.51 94.3 399.377 94.3C402.143 94.3 404.593 93.9 406.727 93.1C408.893 92.3 411.16 91.0833 413.527 89.45L416.777 94.1C414.343 95.9667 411.593 97.4167 408.527 98.45C405.493 99.4833 402.527 100 399.627 100C394.793 100 390.643 98.8667 387.177 96.6C383.743 94.3333 381.11 91.1667 379.277 87.1C377.443 83 376.527 78.2333 376.527 72.8C376.527 67.4667 377.46 62.75 379.327 58.65C381.193 54.55 383.777 51.35 387.077 49.05C390.41 46.7167 394.277 45.55 398.677 45.55C402.943 45.55 406.593 46.5833 409.627 48.65C412.66 50.7167 414.977 53.65 416.577 57.45C418.21 61.2167 419.027 65.7167 419.027 70.95C419.027 71.85 419.01 72.6667 418.977 73.4C418.943 74.1 418.91 74.7167 418.877 75.25H383.177ZM398.827 51.35C394.593 51.35 391.027 52.85 388.127 55.85C385.26 58.85 383.643 63.45 383.277 69.65H413.127C412.993 63.4833 411.61 58.9 408.977 55.9C406.343 52.8667 402.96 51.35 398.827 51.35ZM426.138 99V93.8H434.688V51.75H426.138V46.5H439.438L440.588 59.1C442.654 54.8333 445.121 51.5 447.988 49.1C450.888 46.6667 454.788 45.45 459.688 45.45C461.054 45.45 462.271 45.55 463.338 45.75C464.438 45.95 465.588 46.2 466.788 46.5L465.038 52.35C463.871 52.0167 462.838 51.7833 461.938 51.65C461.071 51.4833 460.071 51.4 458.938 51.4C454.704 51.4 451.104 52.85 448.138 55.75C445.171 58.6167 442.754 63.1667 440.888 69.4V93.8H451.688V99H426.138ZM460.088 63V52.75L460.488 46.5H466.788L466.087 63H460.088ZM478.798 46.5V84.05C478.798 87.7833 479.582 90.5167 481.148 92.25C482.748 93.95 485.265 94.8 488.698 94.8C491.965 94.8 495.032 93.8833 497.898 92.05C500.765 90.1833 502.965 88.05 504.498 85.65V46.5H510.698V99H505.498L504.798 91.65C502.665 94.3167 500.065 96.3833 496.998 97.85C493.932 99.2833 490.865 100 487.798 100C482.732 100 478.932 98.6833 476.398 96.05C473.865 93.3833 472.598 89.6333 472.598 84.8V46.5H478.798ZM536.459 94.35C540.926 94.35 544.426 93.5 546.959 91.8C549.526 90.0667 550.809 87.8 550.809 85C550.809 83.2667 550.526 81.7667 549.959 80.5C549.426 79.2 548.243 78.05 546.409 77.05C544.609 76.0167 541.826 75.05 538.059 74.15C534.293 73.2167 531.026 72.1833 528.259 71.05C525.526 69.9167 523.409 68.4333 521.909 66.6C520.409 64.7667 519.659 62.3333 519.659 59.3C519.659 56.4 520.476 53.9333 522.109 51.9C523.776 49.8333 526.043 48.2667 528.909 47.2C531.809 46.1 535.076 45.55 538.709 45.55C542.809 45.55 546.376 46.1 549.409 47.2C552.476 48.3 555.043 49.6333 557.109 51.2L554.209 55.8C552.276 54.4333 550.126 53.3 547.759 52.4C545.393 51.5 542.393 51.05 538.759 51.05C534.126 51.05 530.876 51.7833 529.009 53.25C527.143 54.7167 526.209 56.5667 526.209 58.8C526.209 60.5333 526.659 61.9667 527.559 63.1C528.493 64.2 530.009 65.1833 532.109 66.05C534.209 66.8833 537.043 67.7833 540.609 68.75C544.043 69.65 547.043 70.7333 549.609 72C552.176 73.2667 554.176 74.9167 555.609 76.95C557.043 78.9833 557.759 81.6167 557.759 84.85C557.759 88.55 556.709 91.5167 554.609 93.75C552.543 95.95 549.876 97.55 546.609 98.55C543.343 99.5167 539.943 100 536.409 100C531.776 100 527.859 99.3167 524.659 97.95C521.493 96.5833 518.859 94.9833 516.759 93.15L520.609 88.6C522.676 90.3333 525.059 91.7333 527.759 92.8C530.459 93.8333 533.359 94.35 536.459 94.35ZM570.87 15.6C573.137 15.6 575.454 15.8167 577.82 16.25C580.22 16.6833 582.404 17.4333 584.37 18.5C586.37 19.5667 587.904 21.0667 588.97 23C590.07 24.9 590.454 27.35 590.12 30.35L587.92 50.85C587.687 53.05 587.937 54.95 588.67 56.55C589.437 58.15 590.97 59.3833 593.27 60.25C595.604 61.1167 599.004 61.55 603.47 61.55V66.45C599.004 66.45 595.604 66.9 593.27 67.8C590.97 68.6667 589.437 69.9167 588.67 71.55C587.937 73.15 587.687 75.05 587.92 77.25L590.12 97.7C590.42 100.667 590.02 103.1 588.92 105C587.854 106.933 586.337 108.433 584.37 109.5C582.404 110.567 580.22 111.317 577.82 111.75C575.454 112.183 573.137 112.4 570.87 112.4V107.1C573.437 107.1 575.787 106.85 577.92 106.35C580.054 105.85 581.72 104.983 582.92 103.75C584.154 102.517 584.654 100.817 584.42 98.65L582.17 76.4C581.904 73.6667 582.004 71.4667 582.47 69.8C582.937 68.1333 583.854 66.8667 585.22 66C586.62 65.1 588.587 64.4833 591.12 64.15C588.787 63.7167 586.92 63 585.52 62C584.12 60.9667 583.154 59.6 582.62 57.9C582.087 56.2 581.937 54.1 582.17 51.6L584.42 29.35C584.654 27.2167 584.154 25.5333 582.92 24.3C581.72 23.0667 580.054 22.2 577.92 21.7C575.82 21.1667 573.47 20.9 570.87 20.9V15.6ZM632.381 83.4C634.548 83.4 636.331 84.1333 637.731 85.6C639.165 87.0333 639.881 88.7333 639.881 90.7C639.881 91.7333 639.798 92.7667 639.631 93.8C639.465 94.8 639.098 95.8833 638.531 97.05L630.081 116.5H623.231L627.981 96.85C626.048 95.4167 625.081 93.3833 625.081 90.75C625.081 88.75 625.781 87.0333 627.181 85.6C628.615 84.1333 630.348 83.4 632.381 83.4ZM632.381 48.75C634.548 48.75 636.331 49.45 637.731 50.85C639.165 52.25 639.881 53.9833 639.881 56.05C639.881 58.0833 639.165 59.8333 637.731 61.3C636.331 62.7667 634.548 63.5 632.381 63.5C630.315 63.5 628.581 62.7667 627.181 61.3C625.781 59.8333 625.081 58.0833 625.081 56.05C625.081 54.65 625.398 53.4 626.031 52.3C626.665 51.2 627.531 50.3333 628.631 49.7C629.765 49.0667 631.015 48.75 632.381 48.75Z" fill="#00ADD8"/>
</g>
<defs>
<clipPath id="clip0_1_2">
<rect width="663" height="131" fill="white"/>
</clipPath>
</defs>
</svg>
